<svg width="33" height="33" viewBox="0 0 33 33" fill="none" xmlns="http://www.w3.org/2000/svg">
<path d="M13.9195 1.6134C16.9466 2.42529 19.0343 4.38541 19.0343 8.27088C19.0343 13.7453 14.882 20.9712 9.76713 20.9712C4.65222 20.9712 0.5 13.7569 0.5 8.27088C0.5 4.38541 2.58776 2.42529 5.61494 1.6134" stroke="#4563FF" stroke-linecap="round" stroke-linejoin="round"/>
<path d="M32.1173 8.75807C32.1173 10.9038 30.4239 12.6551 28.3362 12.6551C26.2485 12.6551 24.5551 10.9154 24.5551 8.75807C24.5551 6.60076 26.2485 4.86102 28.3362 4.86102C30.4239 4.86102 32.1173 6.61236 32.1173 8.75807Z" stroke="#4563FF" stroke-linecap="round" stroke-linejoin="round"/>
<path d="M29.8324 8.75807C29.8324 9.60476 29.1713 10.289 28.3478 10.289C27.5243 10.289 26.8632 9.60476 26.8632 8.75807C26.8632 7.91139 27.5243 7.227 28.3478 7.227C29.1713 7.227 29.8324 7.91139 29.8324 8.75807Z" stroke="#4563FF" stroke-linecap="round" stroke-linejoin="round"/>
<path d="M7.65628 1.59018C7.65628 2.1933 7.20393 2.68051 6.63561 2.68051C6.06729 2.68051 5.61494 2.1933 5.61494 1.59018C5.61494 0.987066 6.06729 0.5 6.63561 0.5C7.20393 0.5 7.65628 0.987066 7.65628 1.59018Z" stroke="#4563FF" stroke-linecap="round" stroke-linejoin="round"/>
<path d="M13.9194 1.59018C13.9194 2.1933 13.4671 2.68051 12.8988 2.68051C12.3305 2.68051 11.8781 2.1933 11.8781 1.59018C11.8781 0.987066 12.3305 0.5 12.8988 0.5C13.4671 0.5 13.9194 0.987066 13.9194 1.59018Z" stroke="#4563FF" stroke-linecap="round" stroke-linejoin="round"/>
<path d="M9.76712 20.9712V24.3463C9.76712 29.0436 13.8962 32.5 18.5124 32.5H19.7998C24.4275 32.5 28.3362 29.0436 28.3362 24.3463V10.3006" stroke="#4563FF" stroke-linecap="round" stroke-linejoin="round"/>
</svg>
