<svg width="15" height="16" viewBox="0 0 15 16" fill="none" xmlns="http://www.w3.org/2000/svg">
<path d="M0.5 4.02174C0.5 5.10174 1.37652 6.44784 2.45652 6.44784C3.53652 6.44784 4.41304 5.10174 4.41304 4.02174C4.41304 2.94174 3.53652 0.875633 2.45652 0.875633C1.37652 0.875633 0.5 2.94174 0.5 4.02174Z" stroke="#4563FF" stroke-miterlimit="10" stroke-linecap="round" stroke-linejoin="round"/>
<path d="M11.8791 7.2513C11.8791 8.05999 12.3278 8.38872 12.8861 8.38872C13.4444 8.38872 13.893 8.40958 13.893 7.60088L13.3922 1.77304C13.3296 0.901732 13.0634 0.500023 12.5104 0.500023C11.7069 0.494806 11.8791 1.3713 11.8791 7.2513Z" stroke="#4563FF" stroke-miterlimit="10" stroke-linecap="round" stroke-linejoin="round"/>
<path d="M11.8791 1.66869V15.4948" stroke="#4563FF" stroke-miterlimit="10" stroke-linecap="round" stroke-linejoin="round"/>
<path d="M2.45651 6.44784V15.4948" stroke="#4563FF" stroke-miterlimit="10" stroke-linecap="round" stroke-linejoin="round"/>
<path d="M7.67392 5.76955V15.5" stroke="#4563FF" stroke-miterlimit="10" stroke-linecap="round" stroke-linejoin="round"/>
<path d="M7.67392 0.698265V3.65133" stroke="#4563FF" stroke-miterlimit="10" stroke-linecap="round" stroke-linejoin="round"/>
<path d="M9.13995 0.698265V3.69827" stroke="#4563FF" stroke-miterlimit="10" stroke-linecap="round" stroke-linejoin="round"/>
<path d="M6.20779 0.698265V3.69827" stroke="#4563FF" stroke-miterlimit="10" stroke-linecap="round" stroke-linejoin="round"/>
<path d="M8.01299 5.76955H7.33477C6.70868 5.76955 6.20779 5.26344 6.20779 4.64257V3.65132H9.14519V4.64257C9.13997 5.26866 8.63386 5.76955 8.01299 5.76955Z" stroke="#4563FF" stroke-miterlimit="10" stroke-linecap="round" stroke-linejoin="round"/>
</svg>
