<svg width="31" height="33" viewBox="0 0 31 33" fill="none" xmlns="http://www.w3.org/2000/svg">
<path d="M22.9216 16.1585L22.0775 6.47466C22.0775 5.21976 21.1003 4.2092 19.8898 3.9982H10.8834C9.67296 4.2092 8.69573 5.23087 8.69573 6.47466L7.85171 16.1585" stroke="#4563FF" stroke-linecap="round" stroke-linejoin="round"/>
<path d="M22.9216 28.974L27.4193 20.223C27.5748 19.9232 27.4859 19.5567 27.2193 19.3568L18.746 13.0157C17.1468 11.9385 16.3361 11.3943 15.381 11.3943C14.426 11.3943 13.6265 11.9384 11.994 13.0379L3.55399 19.3568C3.28747 19.5567 3.19856 19.9232 3.35404 20.223L7.85174 28.974" stroke="#4563FF" stroke-miterlimit="10" stroke-linecap="round" stroke-linejoin="round"/>
<path d="M18.3239 7.26317L20.0009 7.7962" stroke="#4563FF" stroke-linecap="round" stroke-linejoin="round"/>
<path d="M14.537 7.20758H16.225" stroke="#4563FF" stroke-linecap="round" stroke-linejoin="round"/>
<path d="M10.7613 7.7962L12.4492 7.26317" stroke="#4563FF" stroke-linecap="round" stroke-linejoin="round"/>
<path d="M14.8369 3.98708V0.5" stroke="#4563FF" stroke-miterlimit="10" stroke-linecap="round" stroke-linejoin="round"/>
<path d="M17.0579 3.98708V1.82153" stroke="#4563FF" stroke-miterlimit="10" stroke-linecap="round" stroke-linejoin="round"/>
<path d="M13.6375 15.6588L12.8712 16.1696" stroke="#4563FF" stroke-miterlimit="10" stroke-linecap="round" stroke-linejoin="round"/>
<path d="M17.1246 15.6588L17.8908 16.1696" stroke="#4563FF" stroke-miterlimit="10" stroke-linecap="round" stroke-linejoin="round"/>
<path d="M0.5 28.2522C1.67716 27.075 3.57612 27.075 4.75329 28.2522C5.93045 29.4293 7.82941 29.4293 9.00657 28.2522C10.1837 27.075 12.0828 27.075 13.26 28.2522C14.4372 29.4293 16.3361 29.4293 17.5133 28.2522C18.6904 27.075 20.5894 27.075 21.7666 28.2522C22.9437 29.4293 24.8428 29.4293 26.02 28.2522C27.1972 27.075 29.0961 27.075 30.2733 28.2522" stroke="#4563FF" stroke-miterlimit="10" stroke-linecap="round" stroke-linejoin="round"/>
<path d="M0.5 31.6171C1.67716 30.44 3.57612 30.44 4.75329 31.6171C5.93045 32.7943 7.82941 32.7943 9.00657 31.6171C10.1837 30.44 12.0828 30.44 13.26 31.6171C14.4372 32.7943 16.3361 32.7943 17.5133 31.6171C18.6904 30.44 20.5894 30.44 21.7666 31.6171C22.9437 32.7943 24.8428 32.7943 26.02 31.6171C27.1972 30.44 29.0961 30.44 30.2733 31.6171" stroke="#4563FF" stroke-miterlimit="10" stroke-linecap="round" stroke-linejoin="round"/>
</svg>
