<svg width="29" height="40" viewBox="0 0 29 40" fill="none" xmlns="http://www.w3.org/2000/svg">
<path d="M21.6971 13.8116C21.6971 18.4627 18.142 22.2451 13.7716 22.2451C9.38781 22.2451 5.84606 18.4761 5.84606 13.8116C5.84606 9.16057 9.40118 5.37815 13.7716 5.37815C18.142 5.39152 21.6971 9.16057 21.6971 13.8116Z" stroke="#4563FF" stroke-linecap="round" stroke-linejoin="round"/>
<path d="M13.8116 5.39153C16.0035 5.39153 17.7811 9.16058 17.7811 13.825C17.7811 18.4761 16.0035 22.2583 13.8116 22.2583" stroke="#4563FF" stroke-linecap="round" stroke-linejoin="round"/>
<path d="M13.7448 5.39153C11.5529 5.39153 9.77542 9.16058 9.77542 13.825C9.77542 18.4761 11.5529 22.2583 13.7448 22.2583" stroke="#4563FF" stroke-linecap="round" stroke-linejoin="round"/>
<path d="M13.7582 5.39153V22.2451" stroke="#4563FF" stroke-linecap="round" stroke-linejoin="round"/>
<path d="M21.6971 13.8116H5.83268" stroke="#4563FF" stroke-linecap="round" stroke-linejoin="round"/>
<path d="M20.7615 9.94908H6.71474" stroke="#4563FF" stroke-linecap="round" stroke-linejoin="round"/>
<path d="M20.7615 17.7409H6.84845" stroke="#4563FF" stroke-linecap="round" stroke-linejoin="round"/>
<path d="M26.268 39.2054H0.5V0.5H26.1878C27.4575 0.5 28.5 1.54246 28.5 2.81214V36.96C28.5 38.1896 27.4976 39.2054 26.268 39.2054Z" stroke="#4563FF" stroke-linecap="round" stroke-linejoin="round"/>
<path d="M15.4021 33.1643C15.8298 33.5519 16.4713 33.846 16.9391 33.846C17.6876 33.846 18.3024 33.2713 18.3024 32.5763C18.3024 31.8814 17.6475 31.5204 16.9391 31.3066C16.204 31.066 15.5758 30.7319 15.5758 30.0369C15.5758 29.3286 16.1907 28.7672 16.9391 28.7672C17.447 28.7672 17.888 29.0212 18.1153 29.4088" stroke="#4563FF" stroke-miterlimit="10" stroke-linecap="round" stroke-linejoin="round"/>
<path d="M20.227 33.1643C20.6547 33.5519 21.2961 33.846 21.7639 33.846C22.5124 33.846 23.1272 33.2713 23.1272 32.5763C23.1272 31.8814 22.4723 31.5204 21.7639 31.3066C21.0288 31.066 20.4007 30.7319 20.4007 30.0369C20.4007 29.3286 21.0021 28.7672 21.7639 28.7672C22.2718 28.7672 22.7128 29.0212 22.9401 29.4088" stroke="#4563FF" stroke-miterlimit="10" stroke-linecap="round" stroke-linejoin="round"/>
<path d="M13.5844 33.8727L11.6599 28.7805L9.73528 33.8727" stroke="#4563FF" stroke-linecap="round" stroke-linejoin="round"/>
<path d="M12.9696 32.269H10.3501" stroke="#4563FF" stroke-linecap="round" stroke-linejoin="round"/>
<path d="M5.69906 33.8728V28.7672H7.34295C9.25416 28.687 9.2007 31.5072 7.34295 31.5339H5.69906" stroke="#4563FF" stroke-linecap="round" stroke-linejoin="round"/>
</svg>
