<svg width="14" height="16" viewBox="0 0 14 16" fill="none" xmlns="http://www.w3.org/2000/svg">
<path d="M9.24442 15.5001H1.21426C0.82036 15.5001 0.5 15.1797 0.5 14.7858V3.65167C0.5 3.25777 0.82036 2.93741 1.21426 2.93741H9.24442C9.63831 2.93741 9.95874 3.25777 9.95874 3.65167V14.7858C9.95874 15.1797 9.63831 15.5001 9.24442 15.5001Z" stroke="#4563FF" stroke-miterlimit="10" stroke-linecap="round" stroke-linejoin="round"/>
<path d="M9.95874 4.92266H10.8147C11.8231 4.92266 12.6372 5.76297 12.6372 6.76083V9.0349C12.6372 10.0328 11.8284 10.8731 10.8147 10.8731H9.95874" stroke="#4563FF" stroke-miterlimit="10" stroke-linecap="round" stroke-linejoin="round"/>
<path d="M2.59552 6.22512V13.3468" stroke="#4563FF" stroke-miterlimit="10" stroke-linecap="round" stroke-linejoin="round"/>
<path d="M5.23199 6.22512V13.3468" stroke="#4563FF" stroke-miterlimit="10" stroke-linecap="round" stroke-linejoin="round"/>
<path d="M7.86841 6.22512V13.3468" stroke="#4563FF" stroke-miterlimit="10" stroke-linecap="round" stroke-linejoin="round"/>
<path d="M1.36127 2.93742C1.39803 1.83451 2.40119 1.06774 3.3728 1.44063C4.23412 0.264199 5.83597 0.180176 6.79707 1.25157C7.86321 0.689613 9.09741 1.62969 8.95561 2.93742" stroke="#4563FF" stroke-miterlimit="10" stroke-linecap="round" stroke-linejoin="round"/>
</svg>
